<?xml version="1.0" encoding="UTF-8"?>
<svg id="Layer_1" xmlns="http://www.w3.org/2000/svg" version="1.1" viewBox="0 0 666.7 609.7">
  <!-- Generator: Adobe Illustrator 29.1.0, SVG Export Plug-In . SVG Version: 2.1.0 Build 142)  -->
  <defs>
    <style>
      .st0 {
        fill: #fff;
      }
    </style>
  </defs>
  <path class="st0" d="M540.8,12.7c16.3,16.3,16.3,42.7,0,58.9,0,0,0,0,0,0l-38.1,38.1h39c69,0,125,56,125,125h0v250c0,69-56,125-125,125H125c-69,0-125-56-125-125h0v-250c0-69,56-125,125-125h38.9l-38-38.1c-16.6-16-17-42.4-1-58.9,16-16.6,42.4-17,58.9-1,.3.3.7.7,1,1l88.4,88.4c2.6,2.6,4.8,5.5,6.6,8.6h107.1c1.8-3.1,4-6,6.6-8.6L481.8,12.7c16.3-16.3,42.7-16.3,58.9,0,0,0,0,0,0,0h0ZM541.7,193.3H125c-21.8,0-39.9,16.8-41.6,38.6v3.1c0,0,0,250,0,250,0,22,17,40,38.6,41.5h3.1c0,.1,416.7.1,416.7.1,21.8,0,39.9-16.8,41.6-38.6v-3.1c.1,0,.1-250,.1-250,0-23-18.7-41.7-41.7-41.7h0ZM208.3,276.7c23,0,41.7,18.7,41.7,41.7v41.7c0,23-18.7,41.7-41.7,41.7s-41.7-18.7-41.7-41.7v-41.7c0-23,18.7-41.7,41.7-41.7ZM458.3,276.7c23,0,41.7,18.7,41.7,41.7v41.7c0,23-18.7,41.7-41.7,41.7s-41.7-18.7-41.7-41.7v-41.7c0-23,18.7-41.7,41.7-41.7Z"/>
</svg>