<?xml version="1.0" encoding="utf-8"?>
<!-- Generator: Adobe Illustrator 28.0.0, SVG Export Plug-In . SVG Version: 6.00 Build 0)  -->
<svg version="1.1" id="Layer_1" xmlns="http://www.w3.org/2000/svg" xmlns:xlink="http://www.w3.org/1999/xlink" x="0px" y="0px"
	 viewBox="0 0 36.52 8.4" style="enable-background:new 0 0 36.52 8.4;" xml:space="preserve">
<style type="text/css">
	.st0{fill:#6589BF;}
	.st1{fill:#78AA58;}
</style>
<g>
	<g>
		<path id="delay0" class="st0" d="M5.02,0h2.16v8.4H4.42V6.29l0.36-0.13V3.35L3.3,5.22h3.28l0.2-0.42H8.5v2.22H0L5.02,0z"/>
		<path id="delay1" class="st0" d="M12.7,0v8.4H9.94V0H12.7z M18.36,0l-3.28,3.94l3.46,4.46h-3.19l-3.4-4.38L15.29,0
			C15.29,0,18.36,0,18.36,0z"/>
		<path id="delay2" class="st1" d="M23.61,0h2.16v8.4h-2.76V6.29l0.36-0.13V3.35l-1.48,1.87h3.28l0.2-0.42h1.72v2.22h-8.5L23.61,0z"
			/>
		<path id="delay3" class="st1" d="M31.28,0v8.4h-2.75V0H31.28z M30.36,8.4V6.12h1.36c0.23,0,0.47-0.02,0.71-0.06
			s0.46-0.12,0.66-0.25c0.2-0.13,0.36-0.32,0.49-0.58s0.19-0.6,0.19-1.03s-0.06-0.78-0.19-1.03s-0.29-0.45-0.49-0.58
			s-0.42-0.21-0.66-0.25c-0.24-0.04-0.48-0.06-0.71-0.06h-1.36V0h1.48c0.98,0,1.81,0.17,2.51,0.5c0.7,0.34,1.24,0.82,1.61,1.44
			s0.56,1.38,0.56,2.26c0,0.87-0.19,1.62-0.56,2.25c-0.37,0.63-0.91,1.11-1.61,1.45s-1.54,0.5-2.51,0.5H30.36z"/>
	</g>
</g>
</svg>
