<?xml version="1.0" encoding="utf-8"?>
<!-- Generator: Adobe Illustrator 28.0.0, SVG Export Plug-In . SVG Version: 6.00 Build 0)  -->
<svg version="1.1" id="Layer_1" xmlns="http://www.w3.org/2000/svg" xmlns:xlink="http://www.w3.org/1999/xlink" x="0px"
	y="0px" viewBox="0 0 148.37 69.49" style="enable-background:new 0 0 148.37 69.49;" xml:space="preserve">
	<style type="text/css">
		.st0 {
			fill: #6589BF;
		}

		.st1 {
			fill: #78AA58;
		}

		.st2 {
			fill: #C68B5B;
		}

		.st3 {
			fill: #C68B5B;
			animation: fade 2s infinite ease-in-out;
		}

    	/* Keyframes for the fade effect */
		@keyframes fade {
			0%, 100% {
				opacity: 1;
			}
			50% {
				opacity: 0;
			}
		}

		/* Adding delays to each dot */
		#dot1 {
			animation-delay: 0s;
		}

		#dot2 {
			animation-delay: 0.5s;
		}

		#dot3 {
			animation-delay: 1s;
		}
	</style>
	<g>
		<g>
			<path class="st2" d="M74.36,36.25v2.34h1.3v0.84h-2.3v-3.18H74.36z" />
			<path class="st2" d="M75.96,37.8c0.11-0.16,0.26-0.29,0.45-0.38c0.19-0.09,0.41-0.13,0.65-0.13s0.46,0.05,0.65,0.13
			c0.19,0.09,0.34,0.21,0.45,0.38s0.16,0.36,0.16,0.59c0,0.22-0.05,0.42-0.16,0.58c-0.11,0.17-0.26,0.29-0.45,0.38
			c-0.19,0.09-0.41,0.13-0.65,0.13s-0.46-0.05-0.65-0.13c-0.19-0.09-0.34-0.21-0.45-0.38c-0.11-0.17-0.16-0.36-0.16-0.58
			C75.79,38.16,75.85,37.96,75.96,37.8z M76.76,38.6c0.03,0.06,0.08,0.1,0.13,0.13c0.05,0.03,0.11,0.04,0.17,0.04
			s0.12-0.02,0.17-0.04c0.05-0.03,0.09-0.07,0.13-0.13c0.03-0.06,0.05-0.13,0.05-0.21c0-0.08-0.02-0.16-0.05-0.21
			c-0.03-0.06-0.08-0.1-0.13-0.13S77.12,38,77.06,38c-0.06,0-0.12,0.02-0.17,0.05s-0.09,0.08-0.13,0.13
			c-0.03,0.06-0.05,0.13-0.05,0.21C76.71,38.47,76.72,38.54,76.76,38.6z" />
			<path class="st2" d="M79.47,38.87c0.02,0.03,0.05,0.05,0.08,0.06c0.03,0.02,0.06,0.02,0.1,0.02c0.06,0,0.11-0.01,0.17-0.04
			s0.1-0.07,0.13-0.12c0.03-0.06,0.05-0.13,0.05-0.22l0.07,0.27c0,0.13-0.03,0.25-0.1,0.35s-0.16,0.17-0.27,0.22
			c-0.11,0.05-0.25,0.08-0.39,0.08c-0.14,0-0.26-0.02-0.38-0.07c-0.11-0.05-0.21-0.12-0.28-0.22s-0.11-0.22-0.11-0.36
			c0-0.2,0.07-0.36,0.21-0.47c0.14-0.11,0.35-0.17,0.61-0.17c0.11,0,0.22,0.01,0.31,0.03c0.1,0.02,0.19,0.04,0.27,0.08
			c0.08,0.03,0.14,0.07,0.19,0.12v0.36c-0.05-0.05-0.12-0.08-0.21-0.11c-0.09-0.03-0.17-0.04-0.27-0.04c-0.06,0-0.1,0.01-0.14,0.02
			c-0.03,0.01-0.06,0.03-0.08,0.05c-0.02,0.02-0.02,0.05-0.02,0.09C79.44,38.81,79.45,38.84,79.47,38.87z M78.71,37.5
			c0.14-0.06,0.31-0.11,0.49-0.16s0.38-0.07,0.58-0.07c0.2,0,0.38,0.03,0.54,0.08c0.16,0.05,0.29,0.13,0.38,0.24
			c0.09,0.11,0.14,0.23,0.14,0.38v1.46H80V38.2c0-0.04-0.01-0.08-0.02-0.11c-0.01-0.03-0.03-0.06-0.06-0.09
			c-0.03-0.03-0.06-0.05-0.11-0.06c-0.05-0.02-0.1-0.02-0.16-0.02c-0.08,0-0.17,0.01-0.27,0.03s-0.18,0.04-0.25,0.07
			c-0.07,0.03-0.12,0.05-0.15,0.06L78.71,37.5z" />
			<path class="st2" d="M81.35,37.78c0.09-0.16,0.22-0.28,0.37-0.36c0.15-0.08,0.3-0.12,0.46-0.12c0.17,0,0.33,0.05,0.47,0.13
			c0.14,0.09,0.25,0.21,0.33,0.38c0.08,0.16,0.12,0.36,0.12,0.58c0,0.22-0.04,0.42-0.12,0.58c-0.08,0.16-0.19,0.29-0.33,0.38
			c-0.14,0.09-0.3,0.13-0.47,0.13c-0.16,0-0.31-0.04-0.46-0.12c-0.15-0.08-0.27-0.2-0.37-0.37c-0.09-0.16-0.14-0.36-0.14-0.6
			C81.21,38.14,81.25,37.94,81.35,37.78z M82.19,38.59c0.03,0.06,0.08,0.11,0.14,0.15c0.06,0.04,0.12,0.05,0.19,0.05
			c0.06,0,0.12-0.02,0.18-0.05s0.11-0.08,0.14-0.14c0.04-0.06,0.05-0.13,0.05-0.22c0-0.09-0.02-0.16-0.05-0.22
			c-0.04-0.06-0.08-0.11-0.14-0.14c-0.06-0.03-0.12-0.05-0.18-0.05c-0.07,0-0.13,0.02-0.19,0.05c-0.06,0.04-0.1,0.08-0.14,0.14
			c-0.03,0.06-0.05,0.13-0.05,0.21S82.16,38.53,82.19,38.59z M83.78,35.88v3.55h-0.89v-3.55H83.78z" />
			<path class="st2" d="M84.3,36.28c0.09-0.08,0.21-0.12,0.35-0.12c0.14,0,0.25,0.04,0.35,0.12c0.09,0.08,0.14,0.19,0.14,0.32
			S85.1,36.84,85,36.92c-0.09,0.08-0.21,0.12-0.35,0.12c-0.14,0-0.25-0.04-0.35-0.12c-0.09-0.08-0.14-0.19-0.14-0.32
			S84.21,36.36,84.3,36.28z M85.08,37.34v2.09h-0.85v-2.09H85.08z" />
			<path class="st2" d="M86.86,37.94c-0.03-0.05-0.09-0.08-0.18-0.08c-0.05,0-0.1,0.01-0.14,0.03c-0.04,0.02-0.07,0.05-0.09,0.1
			s-0.03,0.1-0.03,0.17v1.27h-0.89v-2.09h0.89v0.3c0.06-0.11,0.14-0.19,0.24-0.26c0.11-0.06,0.24-0.1,0.4-0.1
			c0.28,0,0.49,0.07,0.6,0.2c0.11,0.14,0.17,0.33,0.17,0.58v1.36h-0.93v-1.27C86.9,38.06,86.88,37.99,86.86,37.94z" />
			<path class="st2" d="M88.34,37.74c0.09-0.15,0.22-0.27,0.37-0.34c0.15-0.08,0.3-0.11,0.46-0.11c0.17,0,0.33,0.04,0.47,0.12
			c0.14,0.08,0.25,0.2,0.33,0.35c0.08,0.16,0.12,0.35,0.12,0.57c0,0.22-0.04,0.41-0.12,0.57c-0.08,0.16-0.19,0.27-0.33,0.36
			c-0.14,0.08-0.3,0.12-0.47,0.12c-0.16,0-0.31-0.04-0.46-0.11c-0.15-0.08-0.27-0.19-0.37-0.35c-0.09-0.16-0.14-0.35-0.14-0.59
			C88.19,38.1,88.24,37.9,88.34,37.74z M89.09,39.59c0.01,0.08,0.03,0.13,0.07,0.17c0.03,0.04,0.08,0.06,0.13,0.08
			c0.05,0.02,0.11,0.02,0.17,0.02c0.09,0,0.17-0.02,0.23-0.06c0.06-0.04,0.11-0.09,0.14-0.16c0.03-0.07,0.05-0.16,0.05-0.26v-2.05
			h0.84v2.05c0,0.28-0.05,0.51-0.16,0.68c-0.11,0.17-0.25,0.29-0.44,0.37c-0.18,0.08-0.39,0.11-0.63,0.11c-0.3,0-0.53-0.04-0.7-0.12
			s-0.3-0.19-0.39-0.34c-0.08-0.14-0.14-0.31-0.17-0.5C88.24,39.59,89.09,39.59,89.09,39.59z M89.18,38.54
			c0.03,0.05,0.08,0.09,0.14,0.13c0.06,0.03,0.12,0.04,0.19,0.04c0.06,0,0.12-0.01,0.18-0.04c0.06-0.03,0.11-0.06,0.14-0.12
			c0.04-0.05,0.05-0.12,0.05-0.21c0-0.06-0.01-0.12-0.03-0.16c-0.02-0.05-0.05-0.08-0.09-0.11c-0.04-0.03-0.08-0.05-0.12-0.06
			c-0.05-0.02-0.09-0.02-0.13-0.02c-0.07,0-0.13,0.02-0.19,0.04c-0.06,0.03-0.1,0.07-0.14,0.12c-0.03,0.05-0.05,0.12-0.05,0.2
			C89.13,38.42,89.15,38.48,89.18,38.54z" />
			<path id="dot1" class="st3" d="M91.32,38.68c0.1-0.1,0.23-0.16,0.39-0.16s0.29,0.05,0.39,0.16c0.1,0.1,0.15,0.23,0.15,0.37
			c0,0.14-0.05,0.27-0.15,0.37c-0.1,0.1-0.23,0.16-0.39,0.16c-0.16,0-0.29-0.05-0.39-0.16c-0.1-0.1-0.15-0.23-0.15-0.37
			C91.17,38.91,91.22,38.78,91.32,38.68z" />
			<path id="dot2" class="st3" d="M92.85,38.68c0.1-0.1,0.23-0.16,0.39-0.16c0.16,0,0.29,0.05,0.39,0.16c0.1,0.1,0.15,0.23,0.15,0.37
			c0,0.14-0.05,0.27-0.15,0.37s-0.23,0.16-0.39,0.16c-0.16,0-0.29-0.05-0.39-0.16c-0.1-0.1-0.15-0.23-0.15-0.37
			C92.7,38.91,92.75,38.78,92.85,38.68z" />
			<path id="dot3" class="st3" d="M94.38,38.68c0.1-0.1,0.23-0.16,0.39-0.16c0.16,0,0.29,0.05,0.39,0.16c0.1,0.1,0.15,0.23,0.15,0.37
			c0,0.14-0.05,0.27-0.15,0.37s-0.23,0.16-0.39,0.16c-0.16,0-0.29-0.05-0.39-0.16c-0.1-0.1-0.15-0.23-0.15-0.37
			C94.23,38.91,94.28,38.78,94.38,38.68z" />
		</g>
	</g>
	<g>
		<g>
			<path class="st2" d="M60.18,36.15h1.22l-1.86,3.53l-1.86-3.53h1.22l0.63,1.61L60.18,36.15z" />
			<path class="st2" d="M61.69,36.19c0.1-0.08,0.22-0.13,0.36-0.13s0.26,0.04,0.36,0.13c0.1,0.08,0.15,0.2,0.15,0.33
			c0,0.14-0.05,0.25-0.15,0.33c-0.1,0.08-0.22,0.13-0.36,0.13s-0.26-0.04-0.36-0.13c-0.1-0.08-0.15-0.2-0.15-0.33
			C61.54,36.38,61.59,36.27,61.69,36.19z M62.48,37.28v2.16h-0.88v-2.16H62.48z" />
			<path class="st2" d="M63.01,37.74c0.1-0.17,0.23-0.29,0.38-0.38c0.15-0.08,0.31-0.13,0.47-0.13c0.18,0,0.34,0.04,0.49,0.14
			s0.26,0.22,0.34,0.39c0.08,0.17,0.13,0.37,0.13,0.6c0,0.23-0.04,0.43-0.13,0.6c-0.08,0.17-0.2,0.3-0.34,0.39
			c-0.14,0.09-0.3,0.14-0.49,0.14c-0.16,0-0.32-0.04-0.47-0.13c-0.15-0.08-0.28-0.21-0.38-0.38c-0.1-0.17-0.15-0.38-0.15-0.62
			C62.86,38.11,62.91,37.9,63.01,37.74z M63.88,38.58c0.03,0.06,0.08,0.12,0.14,0.15s0.12,0.06,0.19,0.06
			c0.06,0,0.12-0.02,0.18-0.05s0.11-0.08,0.15-0.15c0.04-0.06,0.06-0.14,0.06-0.23c0-0.09-0.02-0.16-0.06-0.23s-0.09-0.11-0.15-0.15
			s-0.12-0.05-0.18-0.05c-0.07,0-0.13,0.02-0.19,0.06c-0.06,0.04-0.11,0.09-0.14,0.15s-0.05,0.13-0.05,0.22
			C63.83,38.44,63.85,38.51,63.88,38.58z M65.52,35.78v3.67H64.6v-3.67H65.52z" />
			<path class="st2" d="M66.52,39.35c-0.2-0.09-0.36-0.22-0.47-0.39c-0.11-0.17-0.16-0.37-0.16-0.6c0-0.24,0.05-0.44,0.16-0.61
			s0.25-0.3,0.45-0.39c0.19-0.09,0.43-0.13,0.71-0.13c0.27,0,0.5,0.04,0.69,0.12c0.19,0.08,0.33,0.21,0.42,0.37s0.14,0.36,0.14,0.59
			c0,0.04,0,0.08,0,0.12s0,0.08-0.01,0.11h-2.06v-0.44h1.2l-0.18,0.22c0.02-0.03,0.03-0.06,0.05-0.09c0.01-0.03,0.02-0.06,0.02-0.08
			c0-0.08-0.01-0.14-0.04-0.19c-0.02-0.05-0.06-0.09-0.11-0.12s-0.1-0.04-0.16-0.04c-0.08,0-0.15,0.02-0.21,0.06
			c-0.05,0.04-0.09,0.1-0.12,0.18c-0.03,0.08-0.04,0.19-0.04,0.32c0,0.11,0.01,0.2,0.04,0.28s0.07,0.14,0.13,0.18
			c0.06,0.04,0.13,0.06,0.21,0.06c0.11,0,0.21-0.02,0.28-0.05c0.08-0.04,0.13-0.09,0.17-0.16l0.84,0.13
			c-0.12,0.23-0.28,0.41-0.48,0.52c-0.21,0.12-0.46,0.17-0.76,0.17C66.97,39.49,66.72,39.45,66.52,39.35z" />
			<path class="st2" d="M68.93,37.76c0.11-0.17,0.27-0.3,0.47-0.39c0.2-0.09,0.42-0.14,0.67-0.14c0.25,0,0.47,0.04,0.67,0.14
			c0.2,0.09,0.35,0.22,0.47,0.39c0.11,0.17,0.17,0.37,0.17,0.61c0,0.23-0.06,0.43-0.17,0.6c-0.11,0.17-0.27,0.3-0.47,0.39
			c-0.2,0.09-0.42,0.14-0.67,0.14c-0.25,0-0.48-0.04-0.67-0.14c-0.2-0.09-0.35-0.22-0.47-0.39c-0.11-0.17-0.17-0.37-0.17-0.6
			C68.76,38.13,68.81,37.92,68.93,37.76z M69.76,38.58c0.03,0.06,0.08,0.1,0.13,0.13c0.06,0.03,0.11,0.04,0.18,0.04
			c0.06,0,0.12-0.01,0.18-0.04c0.05-0.03,0.1-0.07,0.13-0.13s0.05-0.13,0.05-0.22c0-0.09-0.02-0.16-0.05-0.22S70.3,38.04,70.24,38
			c-0.06-0.03-0.11-0.05-0.18-0.05c-0.06,0-0.12,0.02-0.18,0.05c-0.05,0.03-0.1,0.08-0.13,0.14c-0.03,0.06-0.05,0.13-0.05,0.22
			C69.7,38.45,69.72,38.52,69.76,38.58z" />
		</g>
	</g>
</svg>